# xmcd
#
# Track frame offsets: 
#        150
#        18359
#        35930
#        53894
#        71823
#        88072
#        105851
#        125076
#        141752
#        159391
#        176292
#        194684
#
# Disc length: 2833 seconds
#
# Revision: 1
# Processed by: cddbd v1.5.1PL2 Copyright (c) Steve Scherf et al.
# Submitted via: ExactAudioCopy v0.95b4
#
DISCID=a80b0f0c
DTITLE=Carolyn Dawn Johnson - Love and Negotiation
DYEAR=2006
DGENRE=Country
TTITLE0=Love and Negotiation
TTITLE1=Taking Back My Brave
TTITLE2=Got A Good Day
TTITLE3=Thinkin' Things
TTITLE4=Everybody's Favourite
TTITLE5=Dreaming Without You
TTITLE6=Crybaby
TTITLE7=Little Breakdowns
TTITLE8=All You Need To Know
TTITLE9=Into You
TTITLE10=Nothing Good About Lonely
TTITLE11=Got There First
EXTD=
EXTT0=
EXTT1=
EXTT2=
EXTT3=
EXTT4=
EXTT5=
EXTT6=
EXTT7=
EXTT8=
EXTT9=
EXTT10=
EXTT11=
PLAYORDER=
